<svg xmlns="http://www.w3.org/2000/svg" version="1.1" xmlns:xlink="http://www.w3.org/1999/xlink" xmlns:svgjs="http://svgjs.dev/svgjs" width="2000" height="2000" viewBox="0 0 2000 2000"><g transform="matrix(1,0,0,1,-0.28443113772425477,-0.28443113772459583)"><svg viewBox="0 0 334 334" data-background-color="#ffffff" preserveAspectRatio="xMidYMid meet" height="2000" width="2000" xmlns="http://www.w3.org/2000/svg" xmlns:xlink="http://www.w3.org/1999/xlink"><g id="tight-bounds" transform="matrix(1,0,0,1,0.04749999999998522,0.04750000000001364)"><svg viewBox="0 0 333.90454557049503 333.90454557049503" height="333.90454557049503" width="333.90454557049503"><g><svg></svg></g><g><svg viewBox="0 0 333.90454557049503 333.90454557049503" height="333.90454557049503" width="333.90454557049503"><g><path d="M0 166.952c0-92.205 74.747-166.952 166.952-166.952 92.205 0 166.952 74.747 166.953 166.952 0 92.205-74.747 166.952-166.953 166.953-92.205 0-166.952-74.747-166.952-166.953zM166.952 326.765c88.262 0 159.813-71.551 159.813-159.813 0-88.262-71.551-159.813-159.813-159.813-88.262 0-159.813 71.551-159.813 159.813 0 88.262 71.551 159.813 159.813 159.813z" data-fill-palette-color="tertiary" fill="#ffffff" stroke="transparent"></path><ellipse rx="160.27418187383762" ry="160.27418187383762" cx="166.95227278524752" cy="166.95227278524752" fill="#ffffff" stroke="transparent" stroke-width="0" fill-opacity="1" data-fill-palette-color="tertiary"></ellipse></g><g transform="matrix(1,0,0,1,91.14025644847322,71.17305217166896)"><svg viewBox="0 0 151.62403267354858 191.55844122715712" height="191.55844122715712" width="151.62403267354858"><g><svg viewBox="0 0 151.62403267354858 191.55844122715712" height="191.55844122715712" width="151.62403267354858"><g><svg viewBox="0 0 213.1584412271571 269.2996487159661" height="191.55844122715712" width="151.62403267354858"><g transform="matrix(1,0,0,1,0,158.00453338497258)"><svg viewBox="0 0 213.1584412271571 111.29511533099353" height="111.29511533099353" width="213.1584412271571"><g id="textblocktransform"><svg viewBox="0 0 213.1584412271571 111.29511533099353" height="111.29511533099353" width="213.1584412271571" id="textblock"><g><svg viewBox="0 0 213.1584412271571 111.29511533099353" height="111.29511533099353" width="213.1584412271571"><g transform="matrix(1,0,0,1,0,0)"><svg width="213.1584412271571" viewBox="0.8500000238418579 -36.95000076293945 84.73999786376953 44.25" height="111.29511533099353" data-palette-color="#ffffff"><path d="M23.8-36.95L23.8-36.95Q25.7-36.95 27.75-36.25 29.8-35.55 31.35-34.45L31.35-34.45Q30.85-31.9 30.43-29.85 30-27.8 29.65-26.13 29.3-24.45 28.98-23.08 28.65-21.7 28.35-20.5L28.35-20.5Q27.15-16 25.88-12.38 24.6-8.75 23.18-5.85 21.75-2.95 20.18-0.7 18.6 1.55 16.8 3.25L16.8 3.25Q15.05 4.9 13.3 5.95 11.55 7 10.05 7.3L10.05 7.3Q8.05 7.3 6.35 6.85 4.65 6.4 3.43 5.63 2.2 4.85 1.53 3.78 0.85 2.7 0.85 1.4L0.85 1.4Q0.85 0 1.55-2.13 2.25-4.25 3.7-7.15L3.7-7.15Q4.3-7.1 5.1-6.85 5.9-6.6 6.7-6.25 7.5-5.9 8.15-5.48 8.8-5.05 9.1-4.65L9.1-4.65Q7.5-3 6.5-1.03 5.5 0.95 5.5 2.4L5.5 2.4Q5.5 3.25 5.83 3.93 6.15 4.6 6.95 5.15L6.95 5.15Q10 4 12.9 0.88 15.8-2.25 18.05-6.9L18.05-6.9Q19.4-9.65 20.5-13.2 21.6-16.75 22.38-20.33 23.15-23.9 23.58-27.18 24-30.45 24-32.7L24-32.7Q24-33.05 23.98-33.68 23.95-34.3 23.93-34.98 23.9-35.65 23.85-36.2 23.8-36.75 23.8-36.95ZM29.95-3.35L29.95-3.35Q29.95-3.8 30.02-4.48 30.1-5.15 30.3-6.28 30.5-7.4 30.82-9 31.15-10.6 31.65-12.85L31.65-12.85Q31.75-13.35 32.1-14.45 32.45-15.55 33.02-16.78 33.6-18 34.42-19.15 35.25-20.3 36.4-20.85L36.4-20.85Q37.25-20.65 38.65-19.83 40.05-19 41.05-17.55L41.05-17.55Q39.9-16.25 39.12-14.95 38.35-13.65 37.72-12.25 37.1-10.85 36.57-9.35 36.05-7.85 35.4-6.2L35.4-6.2Q34.85-4.8 34.4-3.33 33.95-1.85 33.9-0.75L33.9-0.75Q33.9 0.15 33.87 0.53 33.85 0.9 33.6 0.9L33.6 0.9Q33.4 0.9 32.8 0.65 32.2 0.4 31.57-0.13 30.95-0.65 30.45-1.45 29.95-2.25 29.95-3.35ZM39.5-25.05L39.5-25.05Q39.5-25.35 39.65-25.95L39.65-25.95Q39.4-26.2 39.22-26.7 39.05-27.2 39.05-27.6L39.05-27.6Q39.05-28.05 39.17-28.83 39.3-29.6 39.5-30.5 39.7-31.4 40-32.38 40.3-33.35 40.6-34.15L40.6-34.15Q41.2-34.15 42.07-33.83 42.95-33.5 43.85-32.98 44.75-32.45 45.5-31.83 46.25-31.2 46.65-30.65L46.65-30.65Q46.1-30.1 45.2-29.13 44.3-28.15 43.45-27.08 42.6-26 41.9-25.05 41.2-24.1 41-23.7L41-23.7Q40.4-23.8 39.95-24.23 39.5-24.65 39.5-25.05ZM40.49-1L40.49-1Q40.74-2.45 41.37-4.83 41.99-7.2 42.84-9.88 43.7-12.55 44.64-15.25 45.59-17.95 46.49-20.1L46.49-20.1Q47.14-21.65 47.64-22.53 48.14-23.4 48.74-24L48.74-24Q49.45-23.9 50.2-23.65 50.95-23.4 51.64-23.05 52.34-22.7 52.89-22.33 53.45-21.95 53.75-21.6L53.75-21.6Q52.39-20 51.37-17.95 50.34-15.9 49.3-12.7L49.3-12.7Q51.99-15.1 54.07-17.3 56.14-19.5 57.95-22.2L57.95-22.2Q58.25-22.45 59-22.45L59-22.45Q59.7-22.45 60.34-22.23 61-22 61.25-21.6L61.25-21.6Q60.34-19.2 60.34-16.85L60.34-16.85Q60.34-14.65 61-13.55L61-13.55Q60.95-13.25 60.32-12.4 59.7-11.55 58.95-10.8L58.95-10.8Q57.59-11.5 56.55-12.73 55.5-13.95 55-15.4L55-15.4Q52.64-13.75 50.99-12.18 49.34-10.6 48.17-8.68 46.99-6.75 46.17-4.25 45.34-1.75 44.59 1.7L44.59 1.7Q44.14 1.65 43.52 1.38 42.89 1.1 42.27 0.7 41.64 0.3 41.14-0.15 40.64-0.6 40.49-1ZM75.44-1.1L75.44-1.1Q74.49-1.9 74.17-3.1 73.84-4.3 73.84-5.15L73.84-5.15Q73.84-6.2 74.09-6.95L74.09-6.95Q73.89-6.95 73.19-6.15 72.49-5.35 71.67-4.25 70.84-3.15 70.04-2.1 69.24-1.05 68.84-0.55L68.84-0.55Q68.19 0.15 67.62 0.55 67.04 0.95 66.69 1L66.69 1Q65.89 0.95 65.02 0.68 64.14 0.4 63.37-0.1 62.59-0.6 62.02-1.3 61.44-2 61.24-2.9L61.24-2.9Q61.24-4.3 61.32-5.2 61.39-6.1 61.64-7.15L61.64-7.15Q62.09-9.05 62.97-11.45 63.84-13.85 64.99-16.18 66.14-18.5 67.57-20.53 68.99-22.55 70.59-23.7L70.59-23.7Q71.04-23.7 71.64-23.63 72.24-23.55 72.87-23.35 73.49-23.15 74.07-22.88 74.64-22.6 75.04-22.15L75.04-22.15Q74.59-21.65 72.77-18.8 70.94-15.95 68.69-10.6L68.69-10.6Q68.44-10.05 68.09-9 67.74-7.95 67.39-6.8 67.04-5.65 66.82-4.55 66.59-3.45 66.59-2.8L66.59-2.8Q66.59-2.4 66.72-2.2 66.84-2 66.94-1.9L66.94-1.9Q67.69-2.2 68.84-3.55 69.99-4.9 72.04-7.7L72.04-7.7Q72.54-8.4 73.22-9.3 73.89-10.2 74.59-11.23 75.29-12.25 75.92-13.35 76.54-14.45 76.94-15.55L76.94-15.55Q77.14-16.15 77.47-16.98 77.79-17.8 78.27-18.7 78.74-19.6 79.37-20.53 79.99-21.45 80.84-22.25L80.84-22.25Q81.49-22.25 82.24-22.1 82.99-21.95 83.67-21.73 84.34-21.5 84.84-21.23 85.34-20.95 85.59-20.65L85.59-20.65Q84.69-18.45 83.59-16.3 82.49-14.15 81.54-12.08 80.59-10 79.94-7.95 79.29-5.9 79.29-3.95L79.29-3.95Q79.29-2.9 79.47-2.13 79.64-1.35 79.84-0.83 80.04-0.3 80.22 0.05 80.39 0.4 80.39 0.65L80.39 0.65Q80.39 0.7 80.29 0.8L80.29 0.8Q80.24 0.85 80.19 0.85L80.19 0.85Q79.84 0.85 79.29 0.7 78.74 0.55 78.07 0.28 77.39 0 76.72-0.35 76.04-0.7 75.44-1.1Z" opacity="1" transform="matrix(1,0,0,1,0,0)" fill="#000000" class="wordmark-text-0" data-fill-palette-color="quaternary" id="text-0"></path></svg></g></svg></g></svg></g></svg></g><g transform="matrix(1,0,0,1,40.713262274387006,0)"><svg viewBox="0 0 131.7319166783831 131.73042773809294" height="131.73042773809294" width="131.7319166783831"><g><svg xmlns="http://www.w3.org/2000/svg" xmlns:xlink="http://www.w3.org/1999/xlink" version="1.1" x="0" y="0" viewBox="0 0 89.10000610351562 89.0989990234375" enable-background="new 0 0 89.1 89.1" xml:space="preserve" width="131.7319166783831" height="131.73042773809294" class="icon-icon-0" data-fill-palette-color="quaternary" id="icon-0"><g fill="#ffffff" data-fill-palette-color="quaternary"><g fill="#ffffff" data-fill-palette-color="quaternary"><polygon fill="none" points="65.865,28.047 66.734,25.78 66.849,25.605 67.632,24.822 65.084,22.275 64.302,23.059 64.127,23.172     61.859,24.043   "></polygon><polygon fill="none" points="22.196,63.562 21.987,64.229 25.665,67.907 26.34,67.705   "></polygon><path fill="none" d="M75.344 13.757C67.46 5.874 56.577 1 44.55 1S21.638 5.874 13.755 13.757C5.874 21.638 1 32.522 1 44.55c0 8.577 2.479 16.572 6.759 23.314C15.485 80.027 29.072 88.1 44.55 88.098c15.781 0.002 29.6-8.395 37.241-20.958 4.004-6.587 6.31-14.319 6.31-22.592C88.099 32.522 83.225 21.638 75.344 13.757zM72.682 70.637c-0.014 0.115-0.062 0.223-0.146 0.308l-1.923 1.925c-0.085 0.082-0.191 0.132-0.31 0.144l-2.49 0.229c-0.015 0.002-0.028 0.002-0.043 0.002-0.134 0-0.263-0.051-0.356-0.146L45.013 50.695 29.74 65.967c0 0.001 0 0.001 0 0.001v0.003c-0.001 0.001-0.003 0.002-0.004 0.003l-2.208 2.208c0 0 0 0.001-0.001 0.001s-0.001 0-0.001 0.001l-0.214 0.214-0.21 0.124-1.314 0.394-3.992 3.991c-0.098 0.098-0.227 0.146-0.354 0.146s-0.255-0.048-0.353-0.146l-4.103-4.104c-0.093-0.093-0.146-0.223-0.146-0.354 0-0.13 0.055-0.261 0.146-0.354l3.996-3.993 0.409-1.303 0.124-0.203 0.325-0.325-0.532-0.532c-0.094-0.095-0.146-0.223-0.146-0.354 0-0.131 0.054-0.262 0.146-0.354l11.307-11.309c0.196-0.197 0.513-0.195 0.709 0l0.532 0.532 5.359-5.359-16.443-16.44-0.029-0.031-0.095-0.136-4-8.6c-0.086-0.19-0.047-0.415 0.099-0.563 0.148-0.148 0.372-0.189 0.563-0.101l8.646 3.955 0.138 0.095 0.037 0.035 16.434 16.433 16.042-16.043 0.097-0.062c0.024-0.016 0.046-0.036 0.072-0.047l0.006-0.004 2.891-1.108 1.062-1.062c0.093-0.093 0.223-0.146 0.353-0.146 0.132 0 0.263 0.053 0.354 0.146l0.435 0.436c1.717-1.585 3.695-2.552 4.317-1.932 0.621 0.623-0.345 2.602-1.932 4.317l0.435 0.433c0.093 0.096 0.146 0.224 0.145 0.354 0 0.134-0.052 0.26-0.146 0.354l-1.062 1.059-1.106 2.891-0.003 0.004c-0.021 0.055-0.057 0.104-0.098 0.149L66.41 29.3 50.366 45.343l22.402 22.402c0.104 0.104 0.156 0.254 0.145 0.4L72.682 70.637z"></path><polygon fill="none" points="33.134,50.972 33.145,50.961 32.965,50.782 22.365,61.384 22.542,61.562   "></polygon><polygon fill="none" points="24.647,60.876 24.64,60.881 24.309,61.212 28.695,65.599 29.03,65.264 29.032,65.26 44.305,49.988     39.919,45.602   "></polygon><path d="M44.55 0C19.945 0 0 19.945 0 44.55 0 53.321 2.536 61.504 6.916 68.4c7.9 12.441 21.805 20.699 37.634 20.699 16.143 0 30.282-8.589 38.097-21.439 4.095-6.738 6.453-14.65 6.453-23.109C89.099 19.945 69.154 0 44.55 0zM81.791 67.141c-7.642 12.563-21.46 20.96-37.241 20.958-15.477 0.002-29.064-8.071-36.791-20.234C3.479 61.122 1 53.127 1 44.55c0-12.026 4.874-22.911 12.754-30.792C21.638 5.874 32.522 1 44.55 1s22.91 4.874 30.794 12.757c7.882 7.882 12.756 18.766 12.756 30.792C88.099 52.821 85.794 60.554 81.791 67.141z" fill="#000000" data-fill-palette-color="quaternary"></path><path d="M50.366 45.343L66.41 29.3l0.014-0.021c0.041-0.046 0.075-0.095 0.098-0.149l0.003-0.004 1.106-2.891 1.062-1.059c0.095-0.095 0.146-0.221 0.146-0.354 0.002-0.132-0.052-0.26-0.145-0.354l-0.435-0.433c1.587-1.716 2.553-3.694 1.932-4.317-0.622-0.621-2.602 0.346-4.317 1.932l-0.435-0.436c-0.093-0.093-0.224-0.146-0.354-0.146-0.13 0-0.26 0.053-0.353 0.146l-1.062 1.062-2.891 1.108-0.006 0.004c-0.026 0.011-0.048 0.031-0.072 0.047l-0.097 0.062L44.564 39.541 28.131 23.108l-0.037-0.035-0.138-0.095-8.646-3.955c-0.192-0.089-0.415-0.048-0.563 0.101-0.146 0.148-0.186 0.373-0.099 0.563l4 8.6 0.095 0.136 0.029 0.031 16.438 16.439-5.359 5.359-0.532-0.532c-0.196-0.195-0.513-0.197-0.709 0L21.304 61.029c-0.094 0.093-0.146 0.223-0.146 0.354 0 0.132 0.054 0.261 0.146 0.354l0.532 0.532-0.325 0.324L21.388 62.8l-0.409 1.303-3.996 3.993c-0.093 0.093-0.146 0.224-0.146 0.354 0 0.132 0.055 0.262 0.146 0.354l4.103 4.104c0.098 0.099 0.225 0.146 0.353 0.146s0.257-0.049 0.354-0.146l3.992-3.991 1.314-0.394 0.21-0.124 0.214-0.214c0-0.001 0.001-0.001 0.001-0.001s0-0.001 0.001-0.001l2.208-2.208c0.001-0.001 0.003-0.002 0.004-0.003v-0.003c0 0 0 0 0-0.001L45.01 50.696l22.403 22.402c0.095 0.096 0.223 0.146 0.356 0.146 0.015 0 0.028 0 0.043-0.002l2.489-0.229c0.118-0.012 0.226-0.062 0.311-0.144l1.923-1.925c0.084-0.085 0.132-0.191 0.146-0.308l0.229-2.491c0.013-0.146-0.039-0.296-0.145-0.4L50.366 45.343zM24.491 28.759c0.091-0.036 0.183-0.071 0.263-0.134 0.229-0.167 0.422-0.427 0.521-0.742l44.199 44.201-1.519 0.141L24.491 28.759zM71.894 68.287l-0.141 1.512L27.551 25.596c0.311-0.087 0.575-0.276 0.736-0.505 0.063-0.083 0.103-0.179 0.139-0.272L71.894 68.287zM70.083 71.982L25.785 27.685c0.405-0.004 0.813-0.141 1.113-0.433 0.304-0.289 0.469-0.69 0.49-1.11L71.657 70.41 70.083 71.982zM21.041 21.416c0.114-0.112 0.214-0.235 0.303-0.362l5.981 2.736c0.135 0.235 0.201 0.449 0.199 0.563-0.002 0.082-0.02 0.112-0.035 0.135-0.115 0.131-0.133 0.147-0.301 0.16-0.084 0-0.209-0.02-0.377-0.076-0.189-0.062-0.396-0.006-0.527 0.139-0.133 0.146-0.168 0.357-0.088 0.538 0.144 0.327 0.203 0.598 0.201 0.792-0.004 0.234-0.062 0.357-0.193 0.491-0.104 0.098-0.228 0.152-0.447 0.156-0.2 0-0.476-0.062-0.794-0.205-0.181-0.08-0.392-0.045-0.538 0.086-0.147 0.133-0.202 0.341-0.14 0.529 0.047 0.142 0.062 0.252 0.062 0.339-0.007 0.201-0.062 0.276-0.199 0.394-0.019 0.015-0.049 0.031-0.131 0.031-0.114 0.003-0.322-0.063-0.552-0.192l-2.772-5.962C20.813 21.621 20.932 21.526 21.041 21.416zM60.959 24.559l4.389 4.387-0.986 0.986-4.387-4.389L60.959 24.559zM64.127 23.172l0.175-0.112 0.782-0.784 2.548 2.546-0.782 0.783-0.115 0.175-0.869 2.267-4.006-4.004L64.127 23.172zM59.62 25.899l4.388 4.388-14.35 14.348-4.386-4.386L59.62 25.899zM27.171 67.12l-4.386-4.385 1.169-1.169 4.386 4.386L27.171 67.12zM25.665 67.907l-3.678-3.678 0.209-0.667 4.144 4.143L25.665 67.907zM32.965 50.782l0.18 0.179-0.012 0.012-10.591 10.59-0.177-0.179L32.965 50.782zM21.44 71.844l-3.395-3.396 3.372-3.371 3.397 3.396L21.44 71.844zM29.032 65.26c-0.001 0.002-0.001 0.003-0.002 0.004l-0.335 0.335-4.386-4.388 0.331-0.331c0.002-0.002 0.005-0.003 0.007-0.005l15.271-15.273 4.387 4.387L29.032 65.26z" fill="#000000" data-fill-palette-color="quaternary"></path></g></g></svg></g></svg></g><g></g></svg></g></svg></g></svg></g></svg></g><defs></defs></svg><rect width="333.90454557049503" height="333.90454557049503" fill="none" stroke="none" visibility="hidden"></rect></g></svg></g></svg>